<svg width="40" height="30" viewBox="0 0 40 30" fill="none" xmlns="http://www.w3.org/2000/svg">
<rect width="40" height="30" rx="15" fill="white" fill-opacity="0.1"/>
<path d="M19.285 9.29592L14.285 14.2959C14.194 14.391 14.1226 14.5032 14.075 14.6259C13.975 14.8694 13.975 15.1425 14.075 15.3859C14.1226 15.5087 14.194 15.6208 14.285 15.7159L19.285 20.7159C19.3783 20.8092 19.4889 20.8831 19.6108 20.9336C19.7326 20.984 19.8632 21.01 19.995 21.01C20.2613 21.01 20.5167 20.9042 20.705 20.7159C20.8933 20.5276 20.9991 20.2722 20.9991 20.0059C20.9991 19.7396 20.8933 19.4842 20.705 19.2959L17.405 16.0059H24.995C25.2602 16.0059 25.5146 15.9006 25.7021 15.713C25.8897 15.5255 25.995 15.2711 25.995 15.0059C25.995 14.7407 25.8897 14.4863 25.7021 14.2988C25.5146 14.1113 25.2602 14.0059 24.995 14.0059H17.405L20.705 10.7159C20.7987 10.623 20.8731 10.5124 20.9239 10.3905C20.9747 10.2686 21.0008 10.1379 21.0008 10.0059C21.0008 9.87391 20.9747 9.7432 20.9239 9.62134C20.8731 9.49948 20.7987 9.38888 20.705 9.29592C20.6121 9.20219 20.5014 9.1278 20.3796 9.07703C20.2577 9.02626 20.127 9.00012 19.995 9.00012C19.863 9.00012 19.7323 9.02626 19.6104 9.07703C19.4886 9.1278 19.378 9.20219 19.285 9.29592Z" fill="white"/>
</svg>
