<svg width="34" height="27" viewBox="0 0 34 27" fill="none" xmlns="http://www.w3.org/2000/svg">
<path d="M28.7683 2.19769C26.6149 1.17324 24.2834 0.429686 21.8548 7.60049e-05C21.8335 -0.000618977 21.8123 0.00345915 21.7927 0.0120237C21.7731 0.0205883 21.7556 0.0334313 21.7414 0.0496467C21.45 0.594921 21.11 1.30543 20.8833 1.8507C18.3073 1.45414 15.6876 1.45414 13.1117 1.8507C12.885 1.2889 12.545 0.594921 12.2374 0.0496467C12.2212 0.0165998 12.1726 7.60049e-05 12.124 7.60049e-05C9.69539 0.429686 7.38009 1.17324 5.2105 2.19769C5.19431 2.19769 5.17812 2.21422 5.16193 2.23074C0.758001 8.95579 -0.456318 15.4991 0.142746 21.9763C0.142746 22.0093 0.158937 22.0424 0.191318 22.0589C3.10568 24.24 5.90671 25.5619 8.67536 26.4376C8.72393 26.4541 8.77251 26.4376 8.7887 26.4045C9.43633 25.4958 10.0192 24.5374 10.5211 23.5295C10.5535 23.4634 10.5211 23.3973 10.4564 23.3808C9.53348 23.0172 8.65917 22.5876 7.80105 22.0919C7.73629 22.0589 7.73629 21.9597 7.78486 21.9102C7.96296 21.778 8.14106 21.6293 8.31916 21.4971C8.35154 21.464 8.40012 21.464 8.4325 21.4806C14.0022 24.0747 20.009 24.0747 25.5139 21.4806C25.5463 21.464 25.5949 21.464 25.6273 21.4971C25.8054 21.6458 25.9835 21.778 26.1616 21.9267C26.2263 21.9763 26.2263 22.0754 26.1454 22.1084C25.3034 22.6207 24.4129 23.0338 23.4901 23.3973C23.4253 23.4138 23.4091 23.4964 23.4253 23.546C23.9434 24.5539 24.5263 25.5123 25.1577 26.4211C25.2063 26.4376 25.2549 26.4541 25.3034 26.4376C28.0883 25.5619 30.8893 24.24 33.8037 22.0589C33.836 22.0424 33.8522 22.0093 33.8522 21.9763C34.5646 14.4911 32.6703 7.99743 28.8331 2.23074C28.8169 2.21422 28.8007 2.19769 28.7683 2.19769ZM11.3631 18.0272C9.69539 18.0272 8.30297 16.4574 8.30297 14.5242C8.30297 12.5909 9.66301 11.0212 11.3631 11.0212C13.0793 11.0212 14.4393 12.6075 14.4231 14.5242C14.4231 16.4574 13.0631 18.0272 11.3631 18.0272ZM22.6481 18.0272C20.9805 18.0272 19.588 16.4574 19.588 14.5242C19.588 12.5909 20.9481 11.0212 22.6481 11.0212C24.3644 11.0212 25.7244 12.6075 25.7082 14.5242C25.7082 16.4574 24.3644 18.0272 22.6481 18.0272Z" fill="white"/>
</svg>
