<svg width="22" height="22" viewBox="0 0 22 22" fill="none" xmlns="http://www.w3.org/2000/svg">
<path d="M15.2375 1.5755C15.578 1.23497 15.9822 0.964829 16.4271 0.780514C16.872 0.5962 17.3488 0.501317 17.8304 0.501282C18.312 0.501247 18.7888 0.596061 19.2337 0.780311C19.6786 0.964562 20.0829 1.23464 20.4234 1.57512C20.7639 1.91561 21.0341 2.31983 21.2184 2.76472C21.4027 3.2096 21.4976 3.68643 21.4976 4.16798C21.4977 4.64954 21.4028 5.12638 21.2186 5.57129C21.0343 6.0162 20.7643 6.42047 20.4238 6.761L19.7473 7.43675L14.5618 2.25125L15.2375 1.5755ZM13.5013 3.3125L2.26779 14.5475C1.88956 14.9255 1.6286 15.4047 1.51629 15.9275L0.516541 20.5925C0.490176 20.715 0.494932 20.8422 0.530373 20.9624C0.565814 21.0826 0.630811 21.192 0.719426 21.2806C0.80804 21.3692 0.917448 21.4342 1.03765 21.4697C1.15786 21.5051 1.28503 21.5099 1.40754 21.4835L6.07254 20.4838C6.59534 20.3714 7.07455 20.1105 7.45254 19.7323L18.6875 8.49725L13.5013 3.3125Z" fill="white" fill-opacity="0.6"/>
</svg>
