<svg width="34" height="34" viewBox="0 0 34 34" fill="none" xmlns="http://www.w3.org/2000/svg">
<path d="M17.0001 5.66675C18.503 5.66675 19.9443 6.26377 21.007 7.32648C22.0697 8.38918 22.6667 9.83052 22.6667 11.3334C22.6667 12.8363 22.0697 14.2776 21.007 15.3404C19.9443 16.4031 18.503 17.0001 17.0001 17.0001C15.4972 17.0001 14.0558 16.4031 12.9931 15.3404C11.9304 14.2776 11.3334 12.8363 11.3334 11.3334C11.3334 9.83052 11.9304 8.38918 12.9931 7.32648C14.0558 6.26377 15.4972 5.66675 17.0001 5.66675ZM17.0001 8.50008C16.2486 8.50008 15.528 8.79859 14.9966 9.32995C14.4653 9.8613 14.1667 10.582 14.1667 11.3334C14.1667 12.0849 14.4653 12.8055 14.9966 13.3369C15.528 13.8682 16.2486 14.1667 17.0001 14.1667C17.7515 14.1667 18.4722 13.8682 19.0035 13.3369C19.5349 12.8055 19.8334 12.0849 19.8334 11.3334C19.8334 10.582 19.5349 9.8613 19.0035 9.32995C18.4722 8.79859 17.7515 8.50008 17.0001 8.50008ZM17.0001 18.4167C20.7826 18.4167 28.3334 20.3009 28.3334 24.0834V28.3334H5.66675V24.0834C5.66675 20.3009 13.2176 18.4167 17.0001 18.4167ZM17.0001 21.1084C12.7926 21.1084 8.35841 23.1767 8.35841 24.0834V25.6417H25.6417V24.0834C25.6417 23.1767 21.2076 21.1084 17.0001 21.1084Z" fill="url(#paint0_linear_1_956)"/>
<defs>
<linearGradient id="paint0_linear_1_956" x1="5.66675" y1="17.0001" x2="28.3334" y2="17.0001" gradientUnits="userSpaceOnUse">
<stop stop-color="#02AAB0"/>
<stop offset="1" stop-color="#00CDAC"/>
</linearGradient>
</defs>
</svg>
